<?xml version="1.0" encoding="UTF-8" standalone="no"?>
<!DOCTYPE svg PUBLIC "-//W3C//DTD SVG 1.1//EN" "http://www.w3.org/Graphics/SVG/1.1/DTD/svg11.dtd">
<svg width="100%" height="100%" viewBox="0 0 204 199" version="1.1" xmlns="http://www.w3.org/2000/svg" xmlns:xlink="http://www.w3.org/1999/xlink" xml:space="preserve" xmlns:serif="http://www.serif.com/" style="fill-rule:evenodd;clip-rule:evenodd;stroke-linejoin:round;stroke-miterlimit:2;">
    <g transform="matrix(1,0,0,1,-34.004,0)">
        <path d="M237.368,101.683C237.368,45.613 191.741,0 135.686,0C79.616,0 34.004,45.613 34.004,101.683C34.004,138.987 54.391,173.26 87.214,191.087L98.994,169.391C74.139,155.889 58.702,129.938 58.702,101.683C58.702,59.228 93.231,24.699 135.686,24.699C178.126,24.699 212.67,59.228 212.67,101.683C212.67,124.888 202.341,145.745 186.036,159.872C186.008,159.901 185.994,159.901 185.966,159.915C182.891,162.291 180.103,164.198 177.599,165.72C177.429,165.833 177.253,165.937 177.073,166.033C174.555,167.47 171.581,168.95 168.28,170.216C162.362,172.478 155.377,174.015 148.021,173.274L148.021,93.986L190.376,93.986L190.376,72.133L80.996,72.133L80.996,93.986L126.182,93.986L126.182,196.109C126.182,196.109 169.575,208.288 201.515,179.122C201.53,179.108 201.558,179.093 201.572,179.079C201.7,178.979 201.814,178.88 201.929,178.795L201.914,178.766C223.597,160.114 237.368,132.471 237.368,101.683" style="fill:rgb(243,146,0);fill-rule:nonzero;"/>
    </g>
</svg>
